<svg width="20" height="21" viewBox="0 0 20 21" fill="none" xmlns="http://www.w3.org/2000/svg">
<path fill-rule="evenodd" clip-rule="evenodd" d="M8.24984 5.0073C8.24984 4.03775 9.03437 3.25365 9.99984 3.25365C10.9653 3.25365 11.7498 4.03775 11.7498 5.0073V5.09185H8.24984V5.0073ZM6.74984 6.59185V7.51095C6.74984 7.92516 7.08563 8.26095 7.49984 8.26095C7.91405 8.26095 8.24984 7.92516 8.24984 7.51095V6.59185H11.7498V7.51095C11.7498 7.92516 12.0856 8.26095 12.4998 8.26095C12.9141 8.26095 13.2498 7.92516 13.2498 7.51095V6.59185H14.3052L15.0234 15.941H4.97632L5.69444 6.59185H6.74984ZM6.74984 5.09185V5.0073C6.74984 3.21139 8.20388 1.75365 9.99984 1.75365C11.7958 1.75365 13.2498 3.21139 13.2498 5.0073V5.09185H14.9998C15.3918 5.09185 15.7176 5.39363 15.7476 5.78441L16.581 16.6336C16.597 16.8418 16.5254 17.0474 16.3834 17.2006C16.2415 17.3539 16.0421 17.441 15.8332 17.441H4.16651C3.95761 17.441 3.75818 17.3539 3.61624 17.2006C3.4743 17.0474 3.40271 16.8418 3.41871 16.6336L4.25204 5.78441C4.28206 5.39363 4.6079 5.09185 4.99984 5.09185H6.74984Z" fill="white"/>
</svg>
