<svg width="22" height="20" viewBox="0 0 22 20" fill="none" xmlns="http://www.w3.org/2000/svg">
<path d="M7 5.40552C6.58579 5.40552 6.25 5.7413 6.25 6.15552C6.25 6.56973 6.58579 6.90552 7 6.90552V5.40552ZM15 6.90552C15.4142 6.90552 15.75 6.56973 15.75 6.15552C15.75 5.7413 15.4142 5.40552 15 5.40552V6.90552ZM7 9.40552C6.58579 9.40552 6.25 9.7413 6.25 10.1555C6.25 10.5697 6.58579 10.9055 7 10.9055V9.40552ZM11 10.9055C11.4142 10.9055 11.75 10.5697 11.75 10.1555C11.75 9.7413 11.4142 9.40552 11 9.40552V10.9055ZM20.782 14.0635L21.4503 14.404V14.404L20.782 14.0635ZM19.908 14.9375L20.2485 15.6058L19.908 14.9375ZM19.908 1.3735L20.2485 0.70525L20.2485 0.70525L19.908 1.3735ZM20.782 2.24754L21.4503 1.90704V1.90704L20.782 2.24754ZM2.09202 1.3735L2.43251 2.04176L2.43251 2.04176L2.09202 1.3735ZM1.21799 2.24754L1.88624 2.58803L1.88624 2.58803L1.21799 2.24754ZM2.20734 18.5416L2.64003 19.1542L2.64011 19.1542L2.20734 18.5416ZM6.16989 15.742L5.73712 15.1295H5.73712L6.16989 15.742ZM1.09027 18.6331L1.70486 18.2032H1.70486L1.09027 18.6331ZM2.10335 18.6038L1.7683 17.9328L1.76829 17.9328L2.10335 18.6038ZM1.42692 18.8411L1.3173 19.5831H1.3173L1.42692 18.8411ZM2.16983 18.5675L1.76547 17.9358L1.76536 17.9359L2.16983 18.5675ZM2.14376 18.5831L1.7785 17.928L1.77845 17.9281L2.14376 18.5831ZM7.26828 15.1895L7.40589 15.9267L7.40589 15.9267L7.26828 15.1895ZM6.80048 15.3381L7.11351 16.0196L7.11352 16.0196L6.80048 15.3381ZM7 6.90552H15V5.40552H7V6.90552ZM7 10.9055H11V9.40552H7V10.9055ZM4.2 1.90552H17.8V0.405518H4.2V1.90552ZM20.25 4.35552V11.9555H21.75V4.35552H20.25ZM20.25 11.9555C20.25 12.5279 20.2494 12.9122 20.2252 13.208C20.2018 13.4952 20.1599 13.6324 20.1138 13.723L21.4503 14.404C21.6221 14.0667 21.6892 13.7101 21.7203 13.3302C21.7506 12.9591 21.75 12.5032 21.75 11.9555H20.25ZM17.8 15.9055C18.3477 15.9055 18.8035 15.9061 19.1747 15.8758C19.5546 15.8447 19.9112 15.7776 20.2485 15.6058L19.5675 14.2693C19.4769 14.3154 19.3396 14.3573 19.0525 14.3808C18.7566 14.4049 18.3724 14.4055 17.8 14.4055V15.9055ZM20.1138 13.723C19.9939 13.9582 19.8027 14.1494 19.5675 14.2693L20.2485 15.6058C20.7659 15.3421 21.1866 14.9214 21.4503 14.404L20.1138 13.723ZM17.8 1.90552C18.3724 1.90552 18.7566 1.9061 19.0525 1.93028C19.3396 1.95373 19.4769 1.99562 19.5675 2.04176L20.2485 0.70525C19.9112 0.533406 19.5546 0.466295 19.1747 0.435257C18.8035 0.404934 18.3477 0.405518 17.8 0.405518V1.90552ZM21.75 4.35552C21.75 3.80784 21.7506 3.35198 21.7203 2.98085C21.6892 2.60096 21.6221 2.24431 21.4503 1.90704L20.1138 2.58803C20.1599 2.67859 20.2018 2.81587 20.2252 3.103C20.2494 3.39887 20.25 3.78309 20.25 4.35552H21.75ZM19.5675 2.04176C19.8027 2.1616 19.9939 2.35283 20.1138 2.58803L21.4503 1.90704C21.1866 1.3896 20.7659 0.968902 20.2485 0.70525L19.5675 2.04176ZM4.2 0.405518C3.65232 0.405518 3.19646 0.404934 2.82533 0.435257C2.44544 0.466295 2.08879 0.533406 1.75153 0.70525L2.43251 2.04176C2.52307 1.99562 2.66035 1.95373 2.94748 1.93028C3.24336 1.9061 3.62757 1.90552 4.2 1.90552V0.405518ZM1.75 4.35552C1.75 3.78309 1.75058 3.39887 1.77476 3.103C1.79822 2.81587 1.8401 2.67859 1.88624 2.58803L0.549732 1.90704C0.377888 2.24431 0.310777 2.60096 0.279739 2.98085C0.249417 3.35198 0.25 3.80784 0.25 4.35552H1.75ZM1.75153 0.70525C1.23408 0.968902 0.813384 1.3896 0.549732 1.90704L1.88624 2.58803C2.00608 2.35283 2.19731 2.1616 2.43251 2.04176L1.75153 0.70525ZM17.8 14.4055H8.01639V15.9055H17.8V14.4055ZM2.64011 19.1542L6.60267 16.3545L5.73712 15.1295L1.77457 17.9291L2.64011 19.1542ZM0.25 17.8611C0.25 18.0608 0.249252 18.2622 0.264406 18.4278C0.27946 18.5923 0.317386 18.8366 0.47568 19.0629L1.70486 18.2032C1.77289 18.3005 1.76568 18.3731 1.75816 18.291C1.75499 18.2564 1.75258 18.2065 1.7513 18.1315C1.75002 18.0569 1.75 17.9701 1.75 17.8611H0.25ZM1.76829 17.9328C1.68118 17.9763 1.61175 18.0107 1.5523 18.0387C1.49244 18.0669 1.4529 18.0838 1.42597 18.0939C1.36294 18.1177 1.42374 18.0825 1.53654 18.0992L1.3173 19.5831C1.57835 19.6216 1.80366 19.5546 1.95491 19.4976C2.1054 19.4409 2.27432 19.3568 2.43841 19.2748L1.76829 17.9328ZM0.475679 19.0629C0.672743 19.3447 0.977163 19.5328 1.3173 19.5831L1.53654 18.0992C1.60457 18.1092 1.66545 18.1469 1.70486 18.2032L0.475679 19.0629ZM1.75 17.8611V4.35552H0.25V17.8611H1.75ZM1.77465 17.929C1.76983 17.9324 1.76637 17.9349 1.76338 17.937C1.76043 17.939 1.75887 17.9401 1.75804 17.9407C1.75672 17.9416 1.76002 17.9393 1.76547 17.9358L2.5742 19.1991C2.60147 19.1817 2.62688 19.1635 2.64003 19.1542L1.77465 17.929ZM2.4384 19.2748C2.45307 19.2675 2.4808 19.2539 2.50907 19.2381L1.77845 17.9281C1.78396 17.925 1.78751 17.9232 1.78623 17.9238C1.78538 17.9243 1.78372 17.9251 1.78053 17.9267C1.77732 17.9283 1.77354 17.9302 1.7683 17.9328L2.4384 19.2748ZM1.76536 17.9359C1.76971 17.9331 1.77403 17.9305 1.7785 17.928L2.50902 19.2381C2.53112 19.2258 2.55295 19.2127 2.5743 19.1991L1.76536 17.9359ZM8.01639 14.4055C7.66604 14.4055 7.3965 14.4026 7.13067 14.4522L7.40589 15.9267C7.50388 15.9084 7.6118 15.9055 8.01639 15.9055V14.4055ZM6.60266 16.3545C6.9331 16.1211 7.02294 16.0612 7.11351 16.0196L6.48745 14.6565C6.2417 14.7694 6.02325 14.9273 5.73712 15.1295L6.60266 16.3545ZM7.13067 14.4522C6.90869 14.4936 6.69265 14.5623 6.48745 14.6565L7.11352 16.0196C7.20679 15.9768 7.30499 15.9456 7.40589 15.9267L7.13067 14.4522Z" fill="#807D7E"/>
</svg>
